<?xml version="1.0" encoding="UTF-8"?>
<svg id="_Слой_2" data-name="Слой 2" xmlns="http://www.w3.org/2000/svg" viewBox="0 0 69.79 76.65">
  <defs>
    <style>
      .cls-1 {
        fill: #000;
        stroke-width: 0px;
      }
    </style>
  </defs>
  <g id="_Слой_1-2" data-name="Слой 1">
    <g id="oLuOmV">
      <g>
        <path class="cls-1" d="M37.85,35.72c.51.28,1.07.13,1.6.13,9.15.01,18.3,0,27.45.01.46,0,.93-.05,1.37.05.88.19,1.42.73,1.46,1.69.05.97-.26,1.74-1.28,1.96-.69.14-1.41.15-2.11.16-2.5.02-2.56,0-2.96,2.45-.41,2.53-.32,5.05.31,7.56.21.83.6,1.17,1.48,1.09.91-.08,1.83-.03,2.74-.01,1.16.02,1.78.62,1.82,1.79.05,1.25-.58,1.89-1.81,1.95-.35.02-.71.01-1.07.01-20.28,0-40.56-.03-60.85.04-2.4,0-3.85-.96-4.71-3.05-1.73-4.24-1.74-8.5.04-12.72.84-1.99,2.23-3.06,4.6-3,5.08.13,10.16.04,15.67.04-1.38-1.19-2.46-2.19-3.36-3.36-1.98-2.56-3.53-5.31-4.15-8.53-1.03-5.34,2.78-11.31,8.1-12.43,2.23-.47,4.45-.07,6.51.96.52.26.95.37,1.54.09,4.13-2,8.02-1.65,11.36,1.59,3.36,3.25,4.41,7.21,2.89,11.7-1.21,3.58-3.24,6.65-6.1,9.14-.19.17-.37.34-.55.52-.02.02,0,.08,0,.17ZM7.97,45.17c.03.61,0,1.23.09,1.82.25,1.61.58,3.22,1.89,4.36.81.71,1.76.87,2.58.02.71-.74.57-1.56-.06-2.32-1.59-1.93-1.58-5.71.03-7.71.54-.67.66-1.37.19-2.09-.54-.82-1.35-.84-2.17-.55-.7.25-1.13.84-1.47,1.48-.83,1.56-1.12,3.24-1.09,4.99ZM50.61,45.47c0,1.01.14,2.77.92,4.42.39.83.89,1.59,1.85,1.91.84.28,1.5.05,1.99-.65.47-.67.35-1.33-.13-1.96-1.8-2.34-1.79-5.52,0-7.94.42-.57.59-1.17.21-1.84-.41-.71-1.03-.94-1.8-.84-.89.12-1.42.73-1.85,1.45-.84,1.44-1.11,3.03-1.21,5.45Z"/>
        <path class="cls-1" d="M36.35,57.86c10.27,0,20.54,0,30.8,0,.88,0,1.75,0,2.31.84.76,1.14.13,2.71-1.23,2.97-.64.12-1.32.06-1.98.06-2.4,0-2.46-.01-2.86,2.36-.43,2.52-.33,5.05.26,7.56.22.92.68,1.22,1.59,1.14.86-.07,1.73-.03,2.59-.01,1.14.02,1.81.56,1.89,1.74.09,1.24-.53,1.91-1.73,2.06-.45.05-.91.04-1.37.04-20.18,0-40.36-.02-60.54.04-2.37,0-3.89-.93-4.76-3.02-1.78-4.28-1.77-8.6.03-12.87.85-2.01,2.3-2.97,4.64-2.95,10.11.09,20.23.04,30.35.04ZM8.05,67.11c0,.61-.07,1.23.01,1.82.25,1.72.6,3.43,2.08,4.58.82.63,1.72.64,2.44-.2.62-.72.51-1.49-.07-2.21-1.65-2.06-1.64-5.64.05-7.83.53-.69.58-1.4.07-2.1-.53-.72-1.29-.79-2.05-.51-.75.27-1.21.9-1.57,1.59-.78,1.52-1.07,3.16-.97,4.86ZM50.59,67.35c.07.74.05,1.57.24,2.35.37,1.51.71,3.09,2.23,3.97.81.47,1.58.35,2.19-.35.62-.72.54-1.46-.06-2.19-1.71-2.1-1.72-5.67-.01-7.8.58-.73.7-1.47.08-2.2-.61-.72-1.37-.76-2.19-.37-.73.35-1.13.99-1.48,1.67-.78,1.53-.9,3.19-1,4.93Z"/>
        <path class="cls-1" d="M39.49.03c2.99.21,3.05.29,1.48,2.93-2.03,3.4-4.67,5.88-8.98,5.7-3.2-.13-3.64-.93-2.08-3.74C31.8,1.51,35.26-.26,39.49.03Z"/>
      </g>
    </g>
  </g>
</svg>