<?xml version="1.0" encoding="UTF-8"?>
<svg id="_Слой_2" data-name="Слой 2" xmlns="http://www.w3.org/2000/svg" viewBox="0 0 75.92 69.31">
  <defs>
    <style>
      .cls-1 {
        fill: #000;
        stroke-width: 0px;
      }
    </style>
  </defs>
  <g id="_Слой_1-2" data-name="Слой 1">
    <g id="NJHoiQ">
      <g>
        <path class="cls-1" d="M37.94,25.24c-11.1,0-22.19-.01-33.29.01-1.62,0-2.75-.6-3.4-2.11-.27-.65-.63-1.26-.94-1.89-.6-1.24-.33-2.04.89-2.68,5.4-2.81,10.81-5.61,16.22-8.41,6.19-3.21,12.39-6.4,18.57-9.63,1.35-.7,2.6-.71,3.95-.01,11.47,5.96,22.96,11.91,34.43,17.86.38.2.79.35,1.08.69.52.59.61,1.25.27,1.96-.44.9-.86,1.82-1.35,2.7-.61,1.1-1.61,1.52-2.84,1.52-6.78,0-13.57,0-20.35,0-4.41,0-8.83,0-13.24,0ZM43.58,14.18c0-3.12-2.49-5.59-5.63-5.58-3.14,0-5.59,2.47-5.59,5.62,0,3.1,2.52,5.61,5.63,5.6,3.11,0,5.59-2.52,5.59-5.64Z"/>
        <path class="cls-1" d="M56.45,45.7c0-4.24,0-8.47,0-12.71,0-1.47-.26-1.79-1.67-2.11-.64-.14-1.01-.54-1.11-1.18-.1-.65.21-1.12.76-1.43.39-.21.81-.25,1.24-.25,3.4,0,6.81,0,10.21,0,.43,0,.86.04,1.24.25.53.29.86.74.78,1.35-.08.65-.46,1.1-1.14,1.25-1.39.31-1.7.7-1.7,2.11,0,8.55-.01,17.1.01,25.65,0,.67-.17.84-.83.83-2.32-.04-4.64-.04-6.96,0-.65.01-.85-.14-.85-.83.03-4.31.02-8.63.02-12.94Z"/>
        <path class="cls-1" d="M15.14,28.02c1.71,0,3.43,0,5.14,0,.46,0,.91.05,1.31.3.52.32.76.79.66,1.41-.1.61-.47.99-1.06,1.14-1.49.37-1.71.64-1.71,2.16,0,8.52,0,17.04.01,25.57,0,.7-.19.89-.88.87-2.29-.04-4.59-.04-6.88,0-.68.01-.88-.16-.88-.86.03-8.42.02-16.84.01-25.26,0-.38,0-.76-.07-1.13-.13-.71-.54-1.15-1.29-1.29-1.06-.2-1.57-.76-1.49-1.55.08-.75.77-1.33,1.76-1.34,1.79-.03,3.58,0,5.37,0Z"/>
        <path class="cls-1" d="M33.64,45.7c0-4.21,0-8.42,0-12.63,0-1.58-.19-1.81-1.74-2.22-.59-.15-.96-.54-1.05-1.15-.1-.66.2-1.12.75-1.43.41-.23.86-.26,1.32-.26,3.35,0,6.7,0,10.06,0,.41,0,.82.02,1.18.19.59.27.98.71.9,1.42-.07.68-.46,1.1-1.12,1.25-1.42.33-1.69.68-1.69,2.19,0,8.44,0,16.89,0,25.33q0,1.06-1.05,1.05c-2.22,0-4.44-.03-6.65.02-.72.02-.94-.16-.93-.91.04-4.28.02-8.57.02-12.85Z"/>
        <path class="cls-1" d="M37.95,69.31c-11.96,0-23.91,0-35.87,0-1.3,0-2.09-.63-2.08-1.66,0-1.02.82-1.66,2.1-1.66,22.8,0,45.6,0,68.4,0,1.19,0,2.37,0,3.56,0,1.09,0,1.87.72,1.85,1.67-.01.98-.76,1.64-1.87,1.64-12.03,0-24.06,0-36.09,0Z"/>
        <path class="cls-1" d="M37.97,61.04c10.29,0,20.58,0,30.87,0,.38,0,.76.01,1.13.09.73.15,1.27.86,1.28,1.59,0,.72-.55,1.43-1.28,1.59-.32.07-.65.09-.97.09-20.68,0-41.36,0-62.04,0-1.41,0-2.25-.64-2.25-1.69,0-1.05.83-1.68,2.25-1.68,10.34,0,20.68,0,31.02,0Z"/>
      </g>
    </g>
  </g>
</svg>