<?xml version="1.0" encoding="UTF-8"?>
<svg id="_Слой_2" data-name="Слой 2" xmlns="http://www.w3.org/2000/svg" viewBox="0 0 72.32 72.28">
  <defs>
    <style>
      .cls-1 {
        fill: #000;
        stroke-width: 0px;
      }
    </style>
  </defs>
  <g id="_Слой_1-2" data-name="Слой 1">
    <g id="fIDNoF">
      <g>
        <path class="cls-1" d="M52.59,28.28c-2.31,3.97-5.84,3.73-9.49,3.13-.94-.15-1.9-.21-2.84-.36-.94-.16-1.8-.62-2.1-1.53-.38-1.18-1.25-1.61-2.27-2-2.63-1-5.25-2.04-7.87-3.08-.8-.32-1.76-.68-1.35-1.78.44-1.21,1.42-.79,2.29-.47.94.36,1.9.7,2.83,1.08,3.62,1.48,7.22,2.59,11.27,2.76,3.05.12,5.08-.55,7.07-2.7,1.73-1.87,3.44-3.94,6.45-3.94,1.27,0,1.97.34,2.4,1.54.88,2.44,1.85,4.84,3.17,7.31.76-1.94,1.54-3.88,2.28-5.83,1.36-3.6,1.59-3.7,5.18-2.23,2.53,1.03,2.65,1.21,2.65,4.02,0,4.31-.13,8.62.05,12.92.09,2.12-.63,3.71-2.06,5.08-.64.61-.83,1.27-.88,2.11-.3,5.19-.64,10.39-.99,15.58-.06.89-.01,1.98-1.08,2.28-1.27.35-2.63.48-3.88-.18-.52-.28-.52-.88-.58-1.41-.25-2.52-.51-5.04-.99-7.57-.25,2.43-.49,4.87-.74,7.3-.19,1.88-.53,2.11-2.95,2.08-1.98-.03-2.48-.42-2.59-2.2-.35-5.62-.68-11.24-1.03-16.85-.07-1.1,0-2.24-1.1-3-.59-.41-.48-1.14-.48-1.78,0-3.28,0-6.57,0-9.85l-.39-.4Z"/>
        <path class="cls-1" d="M24.88,40.04c-5.16,0-10.32-.07-15.48.02-3.93.07-8.34-2.66-8.19-8.17.21-7.97.04-15.96.05-23.94C1.27,3.27,4.3.08,8.99.05c10.64-.06,21.28-.07,31.92,0,4.55.03,7.66,3.31,7.7,7.86.03,4.26.02,8.51,0,12.77-.01,1.93-1.65,3.51-3.36,3.46-1.17-.04-1.55-.55-1.54-1.68.04-4.63.02-9.26.01-13.88,0-2.75-.87-3.63-3.62-3.63-10.16,0-20.32,0-30.48,0-2.75,0-3.46.74-3.46,3.52,0,7.66,0,15.32,0,22.98,0,3.05.62,3.69,3.6,3.69,10.11,0,20.22,0,30.32.01,1.22,0,2.28-.2,3.19-1.13.64-.66,4.1-.6,4.73,0,.51.48.12,1.01-.05,1.47-1.01,2.68-3.92,4.54-7.26,4.56-5.27.03-10.53,0-15.8,0Z"/>
        <path class="cls-1" d="M12.05,72.26c-3.45,0-6.9-.03-10.35.02-1.22.02-1.75-.43-1.69-1.68.06-1.38,0-2.76,0-4.14.03-4.12,3.59-7.7,7.7-7.77.58,0,1.02.23,1.48.49,1.91,1.09,3.87,1.16,5.76.07,1.08-.62,2.07-.59,3.19-.26,4.39,1.3,6.19,3.66,6.22,8.21,0,.96,0,1.91,0,2.87-.02,2.12-.06,2.18-2.12,2.18-3.4,0-6.8,0-10.19,0Z"/>
        <path class="cls-1" d="M40.45,72.26c-3.45,0-6.9-.03-10.35.01-1.21.02-1.75-.42-1.7-1.67.06-1.48,0-2.97.02-4.46.03-3.84,3.81-7.47,7.69-7.42.62,0,1.12.28,1.64.55,1.94,1.01,3.89,1.03,5.77-.09.91-.54,1.79-.56,2.74-.27,3.84,1.18,6.93,3.36,6.53,8.47-.08,1-.07,2.02,0,3.02.1,1.36-.41,1.9-1.82,1.87-3.5-.07-7.01-.02-10.51-.02Z"/>
        <path class="cls-1" d="M35.09,50.46c.02-3.98,2.34-6.32,6.09-6.1,2.21.13,3.68,1.37,4.41,3.37,1.1,2.97.59,5.79-1.36,8.26-2.1,2.66-5.21,2.61-7.31-.05-1.26-1.59-1.92-3.42-1.83-5.48Z"/>
        <path class="cls-1" d="M6.68,51.61c0-5.11,2.35-7.47,6.07-7.25,1.99.12,3.37,1.17,4.24,2.92,1.42,2.86.64,7.08-1.69,9.29-1.93,1.83-4.37,1.84-6.25-.04-1.67-1.66-2.36-3.74-2.37-4.93Z"/>
        <path class="cls-1" d="M66.46,12.98c-.02.11-.05.38-.09.64-.45,2.77-2.02,4.81-3.92,5.09-1.56.23-3.09-.72-4.06-2.52-1.27-2.37-1.08-5.39.45-7.03,1.13-1.22,3.07-1.65,4.7-1.05,1.73.64,2.91,2.54,2.92,4.88Z"/>
      </g>
    </g>
  </g>
</svg>