<?xml version="1.0" encoding="UTF-8"?>
<svg id="_Слой_2" data-name="Слой 2" xmlns="http://www.w3.org/2000/svg" viewBox="0 0 59.47 76.33">
  <defs>
    <style>
      .cls-1 {
        fill: #000;
        stroke-width: 0px;
      }
    </style>
  </defs>
  <g id="_Слой_1-2" data-name="Слой 1">
    <g id="YIXCHN">
      <g>
        <path class="cls-1" d="M20.04,3.53c1.79.39,3.6-.39,5.26-1.68,3.13-2.43,6.3-2.49,9.44-.03,1.76,1.38,3.7,1.82,5.93,1.75,4.59-.14,6.35.95,7.96,5.21.94,2.51,2.78,3.87,4.89,5.11,2.62,1.52,3.62,3.83,3.28,6.78-.09.8-.14,1.62-.35,2.4-.39,1.42-.11,2.69.55,3.95.36.67.67,1.36.98,2.05,1.23,2.71.99,5.28-1.1,7.44-2.05,2.11-3.31,4.41-3.48,7.45-.17,3.08-1.97,5.22-5.05,5.87-2.87.61-5.04,2.02-6.8,4.38-1.85,2.49-4.46,3.34-7.41,2.18-2.79-1.1-5.43-1.03-8.22.02-2.96,1.11-5.51.17-7.4-2.28-1.67-2.17-3.65-3.68-6.4-4.21-3.45-.66-5.27-2.94-5.49-6.34-.17-2.68-1.18-4.81-3.06-6.68-2.34-2.32-2.95-5.07-1.27-8.01,1.49-2.61,1.68-5.26,1.06-8.16-.59-2.78.46-5.06,2.89-6.64.04-.03.08-.06.13-.08,2.8-1.32,4.55-3.49,5.63-6.39,1.05-2.82,3.3-4.1,6.3-4.08.46,0,.91,0,1.73,0ZM49.63,21.96c.16-1.72-.29-2.63-1.31-3.21-2.61-1.47-4.5-3.56-5.58-6.37-.47-1.22-1.36-1.83-2.69-1.8-3.01.05-5.8-.6-8.27-2.46-1.01-.76-2.23-.82-3.27-.07-2.44,1.76-5.1,2.57-8.12,2.38-1.22-.08-2.36.43-2.82,1.66-1.12,2.98-3.07,5.17-5.81,6.75-.99.57-1.54,1.53-1.29,2.7.66,3.04.34,5.93-1.17,8.66-.73,1.32-.32,2.43.63,3.44,1.87,1.97,3.06,4.23,3.27,7,.11,1.5.73,2.74,2.41,3.1,2.89.63,5.19,2.18,7,4.49.89,1.13,2.05,1.41,3.39.94,2.73-.96,5.43-.97,8.17.02,1.23.44,2.46.34,3.3-.79,1.86-2.52,4.34-4.02,7.37-4.72,1.16-.27,1.93-1.11,2-2.23.22-3.24,1.55-5.92,3.76-8.23.69-.72.88-1.69.45-2.55-1.46-2.95-2.2-5.98-1.41-8.71Z"/>
        <path class="cls-1" d="M8.32,51.28c2.58.89,5.6,1.01,7.58,3.52,1.06,1.35,2.3,2.55,3.36,3.9.98,1.25,2.14,1.58,3.61,1.08.52-.18,1.07-.3,1.6-.46.58-.17,1.21-.45,1.72.05.53.52.18,1.15-.04,1.7-.69,1.74-1.41,3.46-2.11,5.2-1.19,2.95-2.38,5.9-3.58,8.85-.2.5-.32,1.18-.99,1.21-.77.04-.91-.7-1.14-1.24-1.31-3.07-2.59-6.14-3.9-9.21-.84-1.98-1.36-2.19-3.38-1.34-3.07,1.29-6.13,2.61-9.21,3.91-.54.23-1.16.65-1.67.07-.45-.5-.02-1.06.18-1.55,1.85-4.59,3.71-9.18,5.56-13.77.42-1.06,1.02-1.86,2.39-1.92Z"/>
        <path class="cls-1" d="M34.14,58.85c1.12.32,2.24.63,3.35.98,1.25.4,2.29.12,3.14-.87,1.16-1.34,2.35-2.65,3.46-4.03,1.87-2.34,4.59-2.82,7.25-3.38,1.01-.21,1.73.46,2.11,1.39,1.94,4.78,3.87,9.56,5.79,14.35.16.4.43.88-.01,1.27-.41.36-.86.15-1.28-.03-3.26-1.38-6.52-2.76-9.78-4.14-1.8-.76-2.27-.57-3.02,1.2-1.33,3.12-2.63,6.25-3.97,9.36-.23.53-.34,1.29-1.08,1.32-.78.04-.89-.73-1.1-1.26-1.93-4.73-3.85-9.46-5.75-14.2-.58-1.46-.27-2.09.91-1.96Z"/>
      </g>
    </g>
  </g>
</svg>