<?xml version="1.0" encoding="UTF-8"?>
<svg id="_Слой_2" data-name="Слой 2" xmlns="http://www.w3.org/2000/svg" viewBox="0 0 57.06 59.75">
  <defs>
    <style>
      .cls-1 {
        fill: #000;
        stroke-width: 0px;
      }
    </style>
  </defs>
  <g id="_Слой_1-2" data-name="Слой 1">
    <g id="un9YRy">
      <g>
        <path class="cls-1" d="M20.52,28.63c0-8.69,0-17.39,0-26.08,0-.32,0-.64.01-.96.04-.98.59-1.5,1.54-1.58.95-.07,1.6.4,1.81,1.31.13.57.09,1.17.09,1.76,0,1.91.14,2.07,2,2.34,2,.3,3.97.26,5.95-.18.87-.2,1.24-.62,1.19-1.5-.04-.73-.05-1.46.03-2.18.1-.93.66-1.5,1.61-1.54.99-.04,1.67.41,1.83,1.44.09.58.12,1.18.12,1.77,0,16.89,0,33.77,0,50.66,0,2.94-.58,3.96-3.15,4.92-3.55,1.33-7.13,1.28-10.63-.26-1.65-.72-2.46-1.89-2.44-3.83.08-8.69.03-17.39.04-26.08ZM28.53,16.36c1.93-.27,3.93-.36,5.39-1.92.59-.63,1.06-1.38.3-2.15-.76-.77-1.42-.33-2.09.31-1.6,1.52-5.5,1.58-7.09.09-.7-.65-1.37-1.24-2.18-.39-.87.9-.18,1.67.49,2.33,1.44,1.41,3.35,1.46,5.18,1.73ZM28.52,52.99c1.97-.1,3.9-.39,5.39-1.87.61-.61,1.05-1.38.31-2.16-.78-.82-1.41-.32-2.07.31-1.61,1.54-5.62,1.55-7.21,0-.66-.65-1.29-1.12-2.08-.34-.86.85-.27,1.6.37,2.23,1.46,1.44,3.34,1.72,5.29,1.82Z"/>
        <path class="cls-1" d="M57.03,28.68c0,8.64-.04,17.28.03,25.92.02,1.98-.82,3.21-2.52,3.94-3.65,1.57-7.33,1.57-11,.09-1.86-.75-2.79-2.09-2.78-4.22.04-17.24.02-34.47.03-51.71,0-.49.04-1.01.16-1.48.23-.85.86-1.25,1.74-1.22.83.03,1.35.48,1.59,1.26.26.84.14,1.72.14,2.58,0,.73.23,1.19,1.01,1.37,2.39.56,4.76.57,7.14-.03.75-.19,1.06-.6,1.01-1.36-.04-.63,0-1.27,0-1.91,0-1.12.49-1.84,1.67-1.9,1.1-.05,1.77.64,1.78,1.93.03,3.96.01,7.91.01,11.87,0,4.96,0,9.91,0,14.87ZM48.84,52.95c.32,0,.64.04.95,0,1.82-.25,3.62-.58,4.83-2.17.45-.59.57-1.28,0-1.86-.59-.61-1.2-.42-1.8.09-2.33,1.97-5.37,1.95-7.78-.06-.57-.47-1.12-.6-1.69-.06-.53.5-.61,1.08-.2,1.71.43.67,1.03,1.15,1.74,1.49,1.25.6,2.57.89,3.95.86ZM49.06,16.38c1.87-.26,3.8-.4,5.24-1.88.65-.66,1.07-1.49.27-2.27-.72-.7-1.36-.21-1.99.37-1.71,1.58-5.5,1.61-7.19.04-.67-.63-1.31-1.09-2.1-.35-.9.84-.25,1.58.35,2.21,1.47,1.53,3.45,1.66,5.42,1.88Z"/>
        <path class="cls-1" d="M.04,28.69c0-8.6,0-17.19,0-25.79,0-.45-.02-.91.03-1.36C.18.59.73.04,1.69.01c1.01-.03,1.65.51,1.77,1.51.09.72.07,1.46.03,2.18-.05.86.24,1.33,1.14,1.53,2.3.51,4.58.54,6.88,0,.81-.19,1.16-.58,1.13-1.41-.03-.73-.04-1.46.05-2.18.12-.95.63-1.6,1.68-1.64,1.11-.04,1.68.58,1.86,1.6.08.49.06,1,.06,1.5,0,17.01,0,34.02,0,51.03,0,2.65-.77,3.81-3.27,4.72-3.43,1.24-6.86,1.18-10.25-.19C.93,57.91-.02,56.66,0,54.48c.1-8.6.04-17.19.04-25.79ZM8.31,52.99c1.93-.12,4.04-.41,5.52-2.26.48-.6.58-1.24-.05-1.82-.64-.59-1.2-.4-1.8.12-2.2,1.92-5.49,1.92-7.69,0-.59-.52-1.2-.73-1.81-.14-.58.56-.48,1.25-.04,1.86.46.64,1.07,1.11,1.79,1.43,1.22.55,2.51.77,4.08.81ZM8.14,16.39c1.25-.19,2.52-.29,3.7-.8.85-.37,1.58-.87,2.08-1.68.4-.64.38-1.21-.21-1.69-.53-.44-1.07-.38-1.62,0-2.9,2.1-5.15,2.1-7.97.01-.49-.36-.99-.47-1.51-.13-.6.39-.62.99-.4,1.57.33.85,1.04,1.36,1.82,1.75,1.28.64,2.68.79,4.09.95Z"/>
      </g>
    </g>
  </g>
</svg>