<?xml version="1.0" encoding="UTF-8"?>
<svg id="_Слой_2" data-name="Слой 2" xmlns="http://www.w3.org/2000/svg" viewBox="0 0 84.07 58.04">
  <defs>
    <style>
      .cls-1 {
        fill: #000;
        stroke-width: 0px;
      }
    </style>
  </defs>
  <g id="_Слой_1-2" data-name="Слой 1">
    <g id="NSEmZw">
      <g>
        <path class="cls-1" d="M38.98,33.92c6.48.44,12.07,2.35,17.15,5.73,1.34.89,2.56,1.93,3.69,3.07,2.24,2.25,3.51,4.93,3.48,8.16-.01,1.38.04,2.77,0,4.15-.06,2.41-.69,3-3.11,3.01-13.39,0-26.78,0-40.17,0-5.7,0-11.4,0-17.1,0-2.36,0-2.82-.47-2.84-2.8,0-1.11.09-2.22-.02-3.32-.52-4.92,1.89-8.39,5.56-11.16,4.81-3.64,10.21-5.91,16.25-6.56.54-.06,1.08-.18,2-.35-4.39-2.2-7.37-5.36-9.03-9.63-1.67-4.3-1.66-8.66,0-12.96C17.68,3.96,24.69-.38,32.87.03c7.1.35,13.74,5.96,15.67,13.07,1.88,6.93-.31,15.62-9.55,20.82Z"/>
        <path class="cls-1" d="M63.76,32.93c.92.53,2.01.36,3,.61,5.58,1.4,10.67,3.66,14.67,7.95,1.73,1.86,2.73,3.99,2.64,6.59-.06,1.6-.02,3.21-.02,4.82,0,1.44-.74,2.14-2.15,2.14-3.6,0-7.2,0-10.79,0-1.5,0-2.27-.72-2.23-2.24.05-2.11-.03-4.21-.57-6.26-1.22-4.63-4.25-7.94-7.97-10.7-2.5-1.85-5.21-3.36-8.12-4.48-1.07-.41-1.28-.85-.68-1.95,4.51-8.31,4.28-16.52-.76-24.53-.75-1.19-.52-1.56.74-1.89,8.51-2.22,17.97,3.82,19.54,12.57,1.23,6.81-1.05,12.28-6.49,16.49-.29.22-.74.3-.79.87Z"/>
      </g>
    </g>
  </g>
</svg>